<svg xmlns="http://www.w3.org/2000/svg" xmlns:svg="http://www.w3.org/2000/svg" id="svg20" width="24" height="24" version="1.1" viewBox="0 0 24 24"><metadata id="metadata26"/><defs id="defs24"><marker id="TriangleOutM" orient="auto" refX="0" refY="0" style="overflow:visible"><path id="path969" d="M 5.77,0.0 L -2.88,5.0 L -2.88,-5.0 L 5.77,0.0 z" transform="scale(0.4)" style="fill-rule:evenodd;stroke:#1f78b4;stroke-width:1pt;stroke-opacity:1;fill:#1f78b4;fill-opacity:1"/></marker><marker id="TriangleOutL" orient="auto" refX="0" refY="0" style="overflow:visible"><path id="path966" d="M 5.77,0.0 L -2.88,5.0 L -2.88,-5.0 L 5.77,0.0 z" transform="scale(0.8)" style="fill-rule:evenodd;stroke:#000;stroke-width:1pt;stroke-opacity:1;fill:#000;fill-opacity:1"/></marker><marker id="TriangleInM" orient="auto" refX="0" refY="0" style="overflow:visible"><path id="path960" d="M 5.77,0.0 L -2.88,5.0 L -2.88,-5.0 L 5.77,0.0 z" transform="scale(-0.4)" style="fill-rule:evenodd;stroke:#1f78b4;stroke-width:1pt;stroke-opacity:1;fill:#1f78b4;fill-opacity:1"/></marker><marker id="Arrow1Mstart" orient="auto" refX="0" refY="0" style="overflow:visible"><path id="path830" d="M 0.0,0.0 L 5.0,-5.0 L -12.5,0.0 L 5.0,5.0 L 0.0,0.0 z" transform="scale(0.4) translate(10,0)" style="fill-rule:evenodd;stroke:#000;stroke-width:1pt;stroke-opacity:1;fill:#000;fill-opacity:1"/></marker><marker id="Arrow2Lend" orient="auto" refX="0" refY="0" style="overflow:visible"><path id="path845" d="M 8.7185878,4.0337352 L -2.2072895,0.016013256 L 8.7185884,-4.0017078 C 6.9730900,-1.6296469 6.9831476,1.6157441 8.7185878,4.0337352 z" transform="scale(1.1) rotate(180) translate(1,0)" style="fill-rule:evenodd;stroke-width:.625;stroke-linejoin:round;stroke:#000;stroke-opacity:1;fill:#000;fill-opacity:1"/></marker><marker id="Arrow2Lstart" orient="auto" refX="0" refY="0" style="overflow:visible"><path id="path842" d="M 8.7185878,4.0337352 L -2.2072895,0.016013256 L 8.7185884,-4.0017078 C 6.9730900,-1.6296469 6.9831476,1.6157441 8.7185878,4.0337352 z" transform="scale(1.1) translate(1,0)" style="fill-rule:evenodd;stroke-width:.625;stroke-linejoin:round;stroke:#000;stroke-opacity:1;fill:#000;fill-opacity:1"/></marker><marker id="TriangleInM-8" orient="auto" refX="0" refY="0" style="overflow:visible"><path id="path960-0" d="M 5.77,0 -2.88,5 V -5 Z" transform="scale(-0.4)" style="fill:#1f78b4;fill-opacity:1;fill-rule:evenodd;stroke:#1f78b4;stroke-width:1.00000003pt;stroke-opacity:1"/></marker><marker id="TriangleOutM-4" orient="auto" refX="0" refY="0" style="overflow:visible"><path id="path969-7" d="M 5.77,0 -2.88,5 V -5 Z" transform="scale(0.4)" style="fill:#1f78b4;fill-opacity:1;fill-rule:evenodd;stroke:#1f78b4;stroke-width:1.00000003pt;stroke-opacity:1"/></marker></defs><linearGradient id="linearGradient6" x1="23" x2="23" y1="23" y2="29" gradientUnits="userSpaceOnUse"><stop id="stop2" offset="0" stop-color="#555753"/><stop id="stop4" offset="1" stop-color="#555753" stop-opacity="0"/></linearGradient><path style="fill:#1f78b4;fill-opacity:1;fill-rule:evenodd;stroke:#000;stroke-width:1.16973925;stroke-miterlimit:4;stroke-dasharray:none;stroke-opacity:1" id="path8810" d="M 18.771269,17.206835 H 15.031708 V 7.168308 h 3.719844 l -6.6346,-6.1266333 -6.6346,6.1266333 h 3.719844 v 10.038527 h -3.73956 l 6.654316,5.935592 z"/></svg>